Coordinates
version=1
nRows=7
nColumns=40
inDegrees=yes

Units are S.I. units (second, meters, Newtons, ...)
Angles are in degrees.

endheader
time	pelvis_tilt	pelvis_list	pelvis_rotation	pelvis_tx	pelvis_ty	pelvis_tz	hip_flexion_r	hip_adduction_r	hip_rotation_r	knee_angle_r	knee_angle_r_beta	ankle_angle_r	subtalar_angle_r	mtp_angle_r	hip_flexion_l	hip_adduction_l	hip_rotation_l	knee_angle_l	knee_angle_l_beta	ankle_angle_l	subtalar_angle_l	mtp_angle_l	lumbar_extension	lumbar_bending	lumbar_rotation	arm_flex_r	arm_add_r	arm_rot_r	elbow_flex_r	pro_sup_r	wrist_flex_r	wrist_dev_r	arm_flex_l	arm_add_l	arm_rot_l	elbow_flex_l	pro_sup_l	wrist_flex_l	wrist_dev_l
     33.46750000	     -4.08683844	     -3.83103499	      2.14443692	      0.90756854	      0.93067020	      0.52713798	     13.97707442	      2.21145457	    -15.61652204	     16.99147386	     16.99147386	      8.67457932	     -2.72826263	     -6.76420254	     31.22910694	     -9.50292219	      0.53029996	     29.50706178	     29.50706178	     11.58960063	    -16.66826289	     13.48845348	    -11.26424868	      6.47048781	      2.68569553	     30.28025224	    -17.37937832	     -5.13640429	     49.99111411	     45.64168576	      0.00000000	      0.00000000	      0.76851871	     -7.94055514	     -9.79465623	     32.16005252	     47.00758158	      0.00000000	      0.00000000
     33.48071429	     -4.17700926	     -3.87972214	      2.50787195	      0.90567139	      0.93052856	      0.52709018	     13.67709372	      2.24871783	    -15.85930757	     16.88897885	     16.88897885	      8.91107546	     -2.76871558	     -6.81344193	     31.60894818	     -9.20681385	      0.61374802	     26.69856566	     26.69856566	     11.17769781	    -15.18298469	     13.50302978	    -11.17804455	      6.47210282	      2.47382138	     31.78823991	    -17.32515717	     -5.14119860	     51.45593588	     45.59641729	      0.00000000	      0.00000000	     -0.11379573	     -7.97873213	     -9.93215765	     31.33693521	     47.00439806	      0.00000000	      0.00000000
     33.49392857	     -4.19006705	     -3.95020541	      2.88340268	      0.90391164	      0.93053960	      0.52681325	     13.22932794	      2.30049738	    -16.19694294	     16.69214276	     16.69214276	      9.12533271	     -2.67769657	     -6.85499572	     31.90229859	     -8.97175226	      0.47737250	     24.22670252	     24.22670252	     10.55786428	    -13.54974845	     13.18801092	    -11.22305769	      6.60295562	      2.08076388	     33.17990252	    -17.15472778	     -5.05002797	     53.47634617	     45.52674125	      0.00000000	      0.00000000	     -0.95712044	     -8.05277802	    -10.16088768	     30.27669541	     47.01390136	      0.00000000	      0.00000000
     33.50714286	     -4.21444429	     -4.11840512	      3.22130268	      0.90230181	      0.93039708	      0.52643478	     12.75838792	      2.45227300	    -16.60199285	     16.44048094	     16.44048094	      9.36457493	     -2.38729874	     -6.98624030	     32.21214615	     -8.88573708	      0.18533964	     22.10347722	     22.10347722	      9.25386605	    -12.00071621	     10.82358381	    -11.23188555	      6.84992332	      2.55059855	     33.24014925	    -17.99219067	     -4.62979756	     57.80279509	     45.36143953	      0.00000000	      0.00000000	     -0.95973354	     -7.80365493	    -11.33587764	     28.54645224	     47.14446899	      0.00000000	      0.00000000
     33.52035714	     -4.22712050	     -4.20221899	      3.53551701	      0.90072693	      0.93047547	      0.52597930	     12.22592190	      2.56331483	    -16.80284625	     16.08907954	     16.08907954	      9.54610031	     -2.33381420	     -6.99357312	     32.48683294	     -8.69296605	     -0.05971180	     20.42847696	     20.42847696	      8.77526654	    -10.63023333	     10.97811370	    -11.17691684	      6.96578770	      2.29122334	     34.55508918	    -17.72308838	     -4.77504038	     59.20058237	     45.32686997	      0.00000000	      0.00000000	     -1.76719531	     -7.85235814	    -11.48817921	     27.95430515	     47.14398343	      0.00000000	      0.00000000
     33.53357143	     -4.21166681	     -4.33597773	      3.81049207	      0.89931557	      0.93062324	      0.52550309	     11.61314169	      2.74308267	    -17.04830311	     15.65131868	     15.65131868	      9.70515875	     -2.14106918	     -7.01561278	     32.73928729	     -8.61736653	     -0.48118632	     19.20502472	     19.20502472	      8.22797362	     -9.37541179	     11.02416439	    -11.10153582	      7.10217740	      2.01912858	     35.63383658	    -17.41525631	     -4.86912994	     60.88751344	     45.27931780	      0.00000000	      0.00000000	     -2.54026530	     -7.86511999	    -11.63989039	     27.49227008	     47.14465314	      0.00000000	      0.00000000
     33.54678571	     -4.20929378	     -4.54384968	      4.04529651	      0.89809330	      0.93058612	      0.52482960	     10.95133638	      2.99341431	    -17.38074367	     15.11557059	     15.11557059	      9.83502659	     -1.79086211	     -7.17939030	     33.04283575	     -8.64403442	     -0.93995985	     18.50460847	     18.50460847	      7.79882458	     -8.31250394	     10.47773446	    -11.06979763	      7.43996886	      2.12435289	     36.16957226	    -17.38042111	     -5.04425324	     63.75471646	     45.19796941	      0.00000000	      0.00000000	     -3.21955925	     -7.80045095	    -12.04541385	     27.32121210	     47.17054604	      0.00000000	      0.00000000
